<?xml version="1.0" encoding="UTF-8"?>
<!DOCTYPE svg PUBLIC "-//W3C//DTD SVG 1.1//EN" "http://www.w3.org/Graphics/SVG/1.1/DTD/svg11.dtd">
<svg xmlns="http://www.w3.org/2000/svg" version="1.1" width="500px" height="500px" style="shape-rendering:geometricPrecision; text-rendering:geometricPrecision; image-rendering:optimizeQuality; fill-rule:evenodd; clip-rule:evenodd" xmlns:xlink="http://www.w3.org/1999/xlink">
<g><path style="opacity:1" fill="#47b3bf" d="M 262.5,104.5 C 263.684,105.688 263.684,106.855 262.5,108C 257.8,111.012 253.134,114.012 248.5,117C 249.252,117.671 249.586,118.504 249.5,119.5C 249.167,119.5 248.833,119.5 248.5,119.5C 247.942,118.21 246.942,117.377 245.5,117C 236.499,115.747 228.999,118.58 223,125.5C 221.878,127.407 221.045,129.407 220.5,131.5C 220.167,131.5 219.833,131.5 219.5,131.5C 219.5,129.833 219.5,128.167 219.5,126.5C 221.941,115.215 228.608,107.381 239.5,103C 246.167,102.333 252.833,102.333 259.5,103C 260.737,103.232 261.737,103.732 262.5,104.5 Z"/></g>
<g><path style="opacity:0.999" fill="#60becd" d="M 262.5,104.5 C 268.715,106.716 273.381,110.716 276.5,116.5C 275.143,115.315 273.643,114.315 272,113.5C 266.471,116.116 262.137,119.45 259,123.5C 259.019,125.107 259.185,126.774 259.5,128.5C 257.465,124.135 254.131,121.135 249.5,119.5C 249.586,118.504 249.252,117.671 248.5,117C 253.134,114.012 257.8,111.012 262.5,108C 263.684,106.855 263.684,105.688 262.5,104.5 Z"/></g>
<g><path style="opacity:1" fill="#4ea2b6" d="M 276.5,116.5 C 279,119.66 280.333,123.327 280.5,127.5C 279.661,126.359 278.994,125.026 278.5,123.5C 277.635,122.417 276.635,122.251 275.5,123C 271.676,126.079 267.676,128.912 263.5,131.5C 262.548,133.045 262.215,134.712 262.5,136.5C 261.512,133.919 260.512,131.252 259.5,128.5C 259.185,126.774 259.019,125.107 259,123.5C 262.137,119.45 266.471,116.116 272,113.5C 273.643,114.315 275.143,115.315 276.5,116.5 Z"/></g>
<g><path style="opacity:1" fill="#101c25" d="M 248.5,119.5 C 244.788,122.211 241.788,125.544 239.5,129.5C 237.926,131.102 237.259,133.102 237.5,135.5C 236.686,137.631 236.186,139.964 236,142.5C 235.617,141.944 235.117,141.611 234.5,141.5C 230.194,139.012 225.861,136.512 221.5,134C 220.748,133.329 220.414,132.496 220.5,131.5C 221.045,129.407 221.878,127.407 223,125.5C 228.999,118.58 236.499,115.747 245.5,117C 246.942,117.377 247.942,118.21 248.5,119.5 Z"/></g>
<g><path style="opacity:0.761" fill="#a5c9c5" d="M 301.5,129.5 C 296.833,129.5 292.167,129.5 287.5,129.5C 292.061,127.299 296.728,127.299 301.5,129.5 Z"/></g>
<g><path style="opacity:1" fill="#aacec9" d="M 200.5,128.5 C 204.265,127.226 207.931,127.559 211.5,129.5C 211.167,129.5 210.833,129.5 210.5,129.5C 209.417,129.539 208.417,129.873 207.5,130.5C 205.477,128.827 203.144,128.16 200.5,128.5 Z"/></g>
<g><path style="opacity:1" fill="#303a3e" d="M 303.5,142.5 C 304.763,144.696 305.763,147.03 306.5,149.5C 306.253,150.713 305.586,151.38 304.5,151.5C 301.288,150.196 297.955,149.196 294.5,148.5C 290.238,149.254 286.238,150.587 282.5,152.5C 282.167,152.5 281.833,152.5 281.5,152.5C 281.5,146.167 281.5,139.833 281.5,133.5C 290.73,131.8 298.064,134.8 303.5,142.5 Z"/></g>
<g><path style="opacity:1" fill="#60aea4" d="M 280.5,127.5 C 281.29,128.609 281.79,129.942 282,131.5C 283.584,130.139 285.418,129.472 287.5,129.5C 292.167,129.5 296.833,129.5 301.5,129.5C 306.293,130.229 310.626,132.063 314.5,135C 315.823,135.816 316.489,136.983 316.5,138.5C 315.542,138.047 314.708,137.381 314,136.5C 311.297,139.934 307.797,141.934 303.5,142.5C 298.064,134.8 290.73,131.8 281.5,133.5C 281.167,133.5 280.833,133.5 280.5,133.5C 280.5,131.5 280.5,129.5 280.5,127.5 Z"/></g>
<g><path style="opacity:1" fill="#307c94" d="M 280.5,127.5 C 280.5,129.5 280.5,131.5 280.5,133.5C 280.5,139.5 280.5,145.5 280.5,151.5C 276.118,152.859 272.118,155.026 268.5,158C 266.342,158.909 264.342,159.075 262.5,158.5C 263.108,153.056 262.442,148.056 260.5,143.5C 262.148,141.544 262.815,139.211 262.5,136.5C 262.215,134.712 262.548,133.045 263.5,131.5C 267.676,128.912 271.676,126.079 275.5,123C 276.635,122.251 277.635,122.417 278.5,123.5C 278.994,125.026 279.661,126.359 280.5,127.5 Z"/></g>
<g><path style="opacity:0.008" fill="#dadcde" d="M 239.5,129.5 C 239.044,133.664 238.378,137.664 237.5,141.5C 237.5,139.5 237.5,137.5 237.5,135.5C 237.259,133.102 237.926,131.102 239.5,129.5 Z"/></g>
<g><path style="opacity:1" fill="#5fb3a8" d="M 219.5,126.5 C 219.5,128.167 219.5,129.833 219.5,131.5C 219.443,132.609 219.11,133.609 218.5,134.5C 211.557,138.979 204.557,143.479 197.5,148C 199.134,148.494 200.801,148.66 202.5,148.5C 198.647,149.174 195.147,150.841 192,153.5C 191.666,155.847 191.833,158.181 192.5,160.5C 190.989,158.524 190.156,156.191 190,153.5C 187.932,155.396 186.099,157.396 184.5,159.5C 180.65,161.004 177.317,163.337 174.5,166.5C 176.514,169.54 177.514,172.874 177.5,176.5C 172.635,168.82 171.302,160.487 173.5,151.5C 174.151,152.091 174.818,152.757 175.5,153.5C 179.578,151.586 183.245,149.086 186.5,146C 188.167,145.667 189.833,145.333 191.5,145C 197.457,139.357 203.791,134.19 210.5,129.5C 210.833,129.5 211.167,129.5 211.5,129.5C 213.861,129.674 216.194,130.007 218.5,130.5C 218.232,128.901 218.566,127.568 219.5,126.5 Z"/></g>
<g><path style="opacity:1" fill="#488b84" d="M 219.5,131.5 C 219.833,131.5 220.167,131.5 220.5,131.5C 220.414,132.496 220.748,133.329 221.5,134C 225.861,136.512 230.194,139.012 234.5,141.5C 231.246,144.471 227.58,146.971 223.5,149C 221.959,150.371 220.625,151.871 219.5,153.5C 219.167,153.5 218.833,153.5 218.5,153.5C 215.419,152.462 212.419,151.128 209.5,149.5C 209.082,148.778 208.416,148.278 207.5,148C 208.701,147.097 209.535,145.931 210,144.5C 213.437,141.8 217.103,139.466 221,137.5C 221.667,136.833 221.667,136.167 221,135.5C 220.049,135.116 219.216,134.783 218.5,134.5C 219.11,133.609 219.443,132.609 219.5,131.5 Z"/></g>
<g><path style="opacity:1" fill="#4f9a91" d="M 200.5,128.5 C 203.144,128.16 205.477,128.827 207.5,130.5C 208.417,129.873 209.417,129.539 210.5,129.5C 203.791,134.19 197.457,139.357 191.5,145C 189.833,145.333 188.167,145.667 186.5,146C 183.245,149.086 179.578,151.586 175.5,153.5C 174.818,152.757 174.151,152.091 173.5,151.5C 177.57,138.1 186.57,130.433 200.5,128.5 Z"/></g>
<g><path style="opacity:1" fill="#53a49a" d="M 218.5,134.5 C 219.216,134.783 220.049,135.116 221,135.5C 221.667,136.167 221.667,136.833 221,137.5C 217.103,139.466 213.437,141.8 210,144.5C 209.535,145.931 208.701,147.097 207.5,148C 208.416,148.278 209.082,148.778 209.5,149.5C 207.194,149.007 204.861,148.674 202.5,148.5C 200.801,148.66 199.134,148.494 197.5,148C 204.557,143.479 211.557,138.979 218.5,134.5 Z"/></g>
<g><path style="opacity:1" fill="#4f918a" d="M 316.5,138.5 C 319.615,140.288 321.615,142.954 322.5,146.5C 320.067,145.671 317.733,146.171 315.5,148C 313.167,149.833 310.833,151.667 308.5,153.5C 307.972,155.336 307.306,157.003 306.5,158.5C 306.815,155.789 306.148,153.456 304.5,151.5C 305.586,151.38 306.253,150.713 306.5,149.5C 305.763,147.03 304.763,144.696 303.5,142.5C 307.797,141.934 311.297,139.934 314,136.5C 314.708,137.381 315.542,138.047 316.5,138.5 Z"/></g>
<g><path style="opacity:1" fill="#3d716b" d="M 237.5,135.5 C 237.5,137.5 237.5,139.5 237.5,141.5C 240.99,144.411 244.656,147.078 248.5,149.5C 247.07,149.421 245.736,149.754 244.5,150.5C 244.331,149.603 243.998,148.603 243.5,147.5C 238.66,150.419 233.994,153.586 229.5,157C 228.207,157.49 226.873,157.657 225.5,157.5C 223.517,156.529 221.517,155.529 219.5,154.5C 219.5,154.167 219.5,153.833 219.5,153.5C 220.625,151.871 221.959,150.371 223.5,149C 227.58,146.971 231.246,144.471 234.5,141.5C 235.117,141.611 235.617,141.944 236,142.5C 236.186,139.964 236.686,137.631 237.5,135.5 Z"/></g>
<g><path style="opacity:1" fill="#343e42" d="M 260.5,143.5 C 262.442,148.056 263.108,153.056 262.5,158.5C 262.675,160.621 262.341,162.621 261.5,164.5C 254.333,171.999 246.833,172.333 239,165.5C 238.68,169.214 238.18,172.881 237.5,176.5C 237.167,176.5 236.833,176.5 236.5,176.5C 237.038,171.533 236.371,166.866 234.5,162.5C 243.952,157.12 252.619,150.787 260.5,143.5 Z"/></g>
<g><path style="opacity:0.686" fill="#a7c0bc" d="M 322.5,146.5 C 324.472,149.084 325.472,152.084 325.5,155.5C 325.167,155.5 324.833,155.5 324.5,155.5C 323.539,152.574 322.873,149.574 322.5,146.5 Z"/></g>
<g><path style="opacity:1" fill="#31524f" d="M 260.5,143.5 C 252.619,150.787 243.952,157.12 234.5,162.5C 231.331,161.083 228.331,159.417 225.5,157.5C 226.873,157.657 228.207,157.49 229.5,157C 233.994,153.586 238.66,150.419 243.5,147.5C 243.998,148.603 244.331,149.603 244.5,150.5C 245.736,149.754 247.07,149.421 248.5,149.5C 252.275,147.061 256.275,145.061 260.5,143.5 Z"/></g>
<g><path style="opacity:1" fill="#3d736c" d="M 322.5,146.5 C 322.873,149.574 323.539,152.574 324.5,155.5C 316.5,160.5 308.5,165.5 300.5,170.5C 302.988,166.697 304.988,162.697 306.5,158.5C 307.306,157.003 307.972,155.336 308.5,153.5C 310.833,151.667 313.167,149.833 315.5,148C 317.733,146.171 320.067,145.671 322.5,146.5 Z"/></g>
<g><path style="opacity:0.999" fill="#2e373b" d="M 192.5,160.5 C 193.441,162.05 194.107,163.716 194.5,165.5C 194.427,167.027 195.094,168.027 196.5,168.5C 198.657,170.412 200.991,172.079 203.5,173.5C 203.414,174.496 203.748,175.329 204.5,176C 203.584,176.278 202.918,176.778 202.5,177.5C 198.827,179 195.494,181 192.5,183.5C 191.167,183.833 189.833,184.167 188.5,184.5C 185.393,181.96 183.56,178.627 183,174.5C 182.292,169.372 182.792,164.372 184.5,159.5C 186.099,157.396 187.932,155.396 190,153.5C 190.156,156.191 190.989,158.524 192.5,160.5 Z"/></g>
<g><path style="opacity:1" fill="#28596c" d="M 280.5,133.5 C 280.833,133.5 281.167,133.5 281.5,133.5C 281.5,139.833 281.5,146.167 281.5,152.5C 280.566,153.568 280.232,154.901 280.5,156.5C 275.223,160.58 269.723,164.58 264,168.5C 263.945,172.886 264.445,176.886 265.5,180.5C 264.542,180.047 263.708,179.381 263,178.5C 262.826,173.649 262.326,168.982 261.5,164.5C 262.341,162.621 262.675,160.621 262.5,158.5C 264.342,159.075 266.342,158.909 268.5,158C 272.118,155.026 276.118,152.859 280.5,151.5C 280.5,145.5 280.5,139.5 280.5,133.5 Z"/></g>
<g><path style="opacity:1" fill="#3e6964" d="M 324.5,155.5 C 324.833,155.5 325.167,155.5 325.5,155.5C 326.889,160.032 326.556,164.365 324.5,168.5C 324.663,166.143 324.497,163.81 324,161.5C 321.842,163.494 319.342,164.828 316.5,165.5C 316.062,165.565 315.728,165.399 315.5,165C 319.439,163.376 322.272,160.876 324,157.5C 303.529,171.311 283.029,184.978 262.5,198.5C 262.281,197.325 262.614,196.325 263.5,195.5C 268.564,192.727 272.897,189.394 276.5,185.5C 280.937,182.441 285.603,179.608 290.5,177C 291.337,175.989 291.67,174.822 291.5,173.5C 292.15,173.804 292.817,174.137 293.5,174.5C 295.725,172.89 298.059,171.557 300.5,170.5C 308.5,165.5 316.5,160.5 324.5,155.5 Z"/></g>
<g><path style="opacity:1" fill="#2c5853" d="M 316.5,165.5 C 311.685,169.47 306.685,173.303 301.5,177C 288.443,185.521 275.443,194.021 262.5,202.5C 262.5,201.167 262.5,199.833 262.5,198.5C 283.029,184.978 303.529,171.311 324,157.5C 322.272,160.876 319.439,163.376 315.5,165C 315.728,165.399 316.062,165.565 316.5,165.5 Z"/></g>
<g><path style="opacity:0.365" fill="#aab8bf" d="M 281.5,152.5 C 281.833,152.5 282.167,152.5 282.5,152.5C 281.167,157.833 281.167,163.167 282.5,168.5C 280.577,164.971 279.911,160.971 280.5,156.5C 280.232,154.901 280.566,153.568 281.5,152.5 Z"/></g>
<g><path style="opacity:0.392" fill="#90999e" d="M 218.5,153.5 C 218.833,153.5 219.167,153.5 219.5,153.5C 219.5,153.833 219.5,154.167 219.5,154.5C 220.103,159.619 219.436,164.285 217.5,168.5C 218.445,163.595 218.779,158.595 218.5,153.5 Z"/></g>
<g><path style="opacity:0.322" fill="#b3b6b8" d="M 194.5,165.5 C 195.906,165.973 196.573,166.973 196.5,168.5C 195.094,168.027 194.427,167.027 194.5,165.5 Z"/></g>
<g><path style="opacity:1" fill="#193749" d="M 217.5,168.5 C 220.518,171.202 223.851,173.702 227.5,176C 229.65,177.411 231.984,178.245 234.5,178.5C 234.5,179.167 234.5,179.833 234.5,180.5C 233.395,181.6 232.062,182.267 230.5,182.5C 224.512,180.173 218.845,177.339 213.5,174C 213.043,173.586 212.709,173.086 212.5,172.5C 213.729,171.719 215.062,171.219 216.5,171C 215.944,170.617 215.611,170.117 215.5,169.5C 215.842,168.662 216.508,168.328 217.5,168.5 Z"/></g>
<g><path style="opacity:1" fill="#163142" d="M 280.5,156.5 C 279.911,160.971 280.577,164.971 282.5,168.5C 284.434,169.11 286.101,170.11 287.5,171.5C 281.599,174.459 275.932,177.959 270.5,182C 271.381,182.708 272.047,183.542 272.5,184.5C 269.996,183.416 267.663,182.083 265.5,180.5C 264.445,176.886 263.945,172.886 264,168.5C 269.723,164.58 275.223,160.58 280.5,156.5 Z"/></g>
<g><path style="opacity:1" fill="#4c8c85" d="M 184.5,159.5 C 182.792,164.372 182.292,169.372 183,174.5C 183.56,178.627 185.393,181.96 188.5,184.5C 188.158,185.338 187.492,185.672 186.5,185.5C 182.5,183.5 179.5,180.5 177.5,176.5C 177.514,172.874 176.514,169.54 174.5,166.5C 177.317,163.337 180.65,161.004 184.5,159.5 Z"/></g>
<g><path style="opacity:1" fill="#0a1d29" d="M 219.5,154.5 C 221.517,155.529 223.517,156.529 225.5,157.5C 228.331,159.417 231.331,161.083 234.5,162.5C 236.371,166.866 237.038,171.533 236.5,176.5C 236.167,177.5 235.5,178.167 234.5,178.5C 231.984,178.245 229.65,177.411 227.5,176C 223.851,173.702 220.518,171.202 217.5,168.5C 219.436,164.285 220.103,159.619 219.5,154.5 Z"/></g>
<g><path style="opacity:1" fill="#0e1f2a" d="M 287.5,171.5 C 289.062,171.733 290.395,172.4 291.5,173.5C 291.67,174.822 291.337,175.989 290.5,177C 285.603,179.608 280.937,182.441 276.5,185.5C 275.167,185.167 273.833,184.833 272.5,184.5C 272.047,183.542 271.381,182.708 270.5,182C 275.932,177.959 281.599,174.459 287.5,171.5 Z"/></g>
<g><path style="opacity:0.999" fill="#303c3f" d="M 323.5,171.5 C 321.826,177.214 318.493,181.547 313.5,184.5C 312.833,184.833 312.167,185.167 311.5,185.5C 304.83,189.501 298.163,193.501 291.5,197.5C 288.506,200 285.173,202 281.5,203.5C 279.564,207.715 278.897,212.381 279.5,217.5C 277.112,215.639 274.446,214.306 271.5,213.5C 268.672,211.252 265.672,209.252 262.5,207.5C 262.5,207.167 262.5,206.833 262.5,206.5C 283.041,193.472 303.208,179.805 323,165.5C 323.495,167.473 323.662,169.473 323.5,171.5 Z"/></g>
<g><path style="opacity:1" fill="#327a91" d="M 202.5,177.5 C 205.079,178.228 207.746,178.728 210.5,179C 213.228,181.392 216.228,183.392 219.5,185C 222.57,185.078 225.57,184.578 228.5,183.5C 227.306,184.272 226.306,185.272 225.5,186.5C 219.469,188.399 213.803,191.065 208.5,194.5C 202.357,191.782 197.024,188.115 192.5,183.5C 195.494,181 198.827,179 202.5,177.5 Z"/></g>
<g><path style="opacity:0.012" fill="#d8dbde" d="M 236.5,176.5 C 236.833,176.5 237.167,176.5 237.5,176.5C 237.262,178.404 236.262,179.738 234.5,180.5C 234.5,179.833 234.5,179.167 234.5,178.5C 235.5,178.167 236.167,177.5 236.5,176.5 Z"/></g>
<g><path style="opacity:1" fill="#26586c" d="M 215.5,169.5 C 215.611,170.117 215.944,170.617 216.5,171C 215.062,171.219 213.729,171.719 212.5,172.5C 212.709,173.086 213.043,173.586 213.5,174C 218.845,177.339 224.512,180.173 230.5,182.5C 230.158,183.338 229.492,183.672 228.5,183.5C 225.57,184.578 222.57,185.078 219.5,185C 216.228,183.392 213.228,181.392 210.5,179C 207.746,178.728 205.079,178.228 202.5,177.5C 202.918,176.778 203.584,176.278 204.5,176C 203.748,175.329 203.414,174.496 203.5,173.5C 204.15,173.804 204.817,174.137 205.5,174.5C 208.581,172.293 211.914,170.626 215.5,169.5 Z"/></g>
<g><path style="opacity:1" fill="#408196" d="M 311.5,185.5 C 312.833,188.5 314.167,191.5 315.5,194.5C 311.549,194.551 308.049,196.218 305,199.5C 304.626,200.416 304.126,201.25 303.5,202C 304.669,204.007 305.335,206.173 305.5,208.5C 302.569,202.563 297.902,198.896 291.5,197.5C 298.163,193.501 304.83,189.501 311.5,185.5 Z"/></g>
<g><path style="opacity:1" fill="#628782" d="M 272.5,184.5 C 273.833,184.833 275.167,185.167 276.5,185.5C 272.897,189.394 268.564,192.727 263.5,195.5C 262.614,196.325 262.281,197.325 262.5,198.5C 262.5,199.833 262.5,201.167 262.5,202.5C 262.5,203.833 262.5,205.167 262.5,206.5C 262.5,206.833 262.5,207.167 262.5,207.5C 261.833,207.5 261.5,207.167 261.5,206.5C 261.334,202.486 261.501,198.486 262,194.5C 262.465,193.069 263.299,191.903 264.5,191C 267.661,189.587 270.661,187.92 273.5,186C 272.944,185.617 272.611,185.117 272.5,184.5 Z"/></g>
<g><path style="opacity:1" fill="#2c4c4a" d="M 324.5,168.5 C 324.737,169.791 324.404,170.791 323.5,171.5C 323.662,169.473 323.495,167.473 323,165.5C 303.208,179.805 283.041,193.472 262.5,206.5C 262.5,205.167 262.5,203.833 262.5,202.5C 275.443,194.021 288.443,185.521 301.5,177C 306.685,173.303 311.685,169.47 316.5,165.5C 319.342,164.828 321.842,163.494 324,161.5C 324.497,163.81 324.663,166.143 324.5,168.5 Z"/></g>
<g><path style="opacity:1" fill="#38645f" d="M 225.5,186.5 C 229.58,187.864 232.913,190.198 235.5,193.5C 235.82,196.898 235.487,200.232 234.5,203.5C 229.678,207.411 224.678,211.078 219.5,214.5C 218.833,210.687 218.166,207.021 217.5,203.5C 213.7,201.766 210.034,199.766 206.5,197.5C 206.5,197.167 206.5,196.833 206.5,196.5C 207.167,195.833 207.833,195.167 208.5,194.5C 213.803,191.065 219.469,188.399 225.5,186.5 Z"/></g>
<g><path style="opacity:0.999" fill="#46b1bc" d="M 313.5,184.5 C 315.388,187.899 317.888,190.899 321,193.5C 322.454,196.071 323.62,198.738 324.5,201.5C 325.292,207.13 325.625,212.797 325.5,218.5C 324.37,226.101 320.703,232.101 314.5,236.5C 313.504,236.586 312.671,236.252 312,235.5C 311.667,236.167 311.333,236.833 311,237.5C 310.237,231.044 309.071,224.711 307.5,218.5C 308.492,218.672 309.158,218.338 309.5,217.5C 312.717,214.939 314.717,211.605 315.5,207.5C 316.794,203.267 316.794,198.934 315.5,194.5C 314.167,191.5 312.833,188.5 311.5,185.5C 312.167,185.167 312.833,184.833 313.5,184.5 Z"/></g>
<g><path style="opacity:1" fill="#3a90a6" d="M 192.5,183.5 C 197.024,188.115 202.357,191.782 208.5,194.5C 207.833,195.167 207.167,195.833 206.5,196.5C 198.973,197.134 192.306,195.134 186.5,190.5C 185.374,189.192 185.374,187.858 186.5,186.5C 186.5,186.167 186.5,185.833 186.5,185.5C 187.492,185.672 188.158,185.338 188.5,184.5C 189.833,184.167 191.167,183.833 192.5,183.5 Z"/></g>
<g><path style="opacity:0.984" fill="#52a6b9" d="M 186.5,186.5 C 185.374,187.858 185.374,189.192 186.5,190.5C 192.306,195.134 198.973,197.134 206.5,196.5C 206.5,196.833 206.5,197.167 206.5,197.5C 203.615,198.382 200.948,199.716 198.5,201.5C 191.982,199.862 185.982,197.029 180.5,193C 182.056,192.28 183.056,191.113 183.5,189.5C 183.5,187.5 184.5,186.5 186.5,186.5 Z"/></g>
<g><path style="opacity:0.012" fill="#f7f9f9" d="M 236.5,195.5 C 237.167,199.167 237.833,202.833 238.5,206.5C 238.5,207.167 238.167,207.5 237.5,207.5C 236.517,203.702 236.183,199.702 236.5,195.5 Z"/></g>
<g><path style="opacity:0.776" fill="#9cb2bc" d="M 253.5,202.5 C 253.167,202.5 252.833,202.5 252.5,202.5C 250.167,202.5 247.833,202.5 245.5,202.5C 248.167,199.833 250.833,199.833 253.5,202.5 Z"/></g>
<g><path style="opacity:0.999" fill="#265063" d="M 245.5,202.5 C 247.833,202.5 250.167,202.5 252.5,202.5C 253.242,208.49 253.409,214.49 253,220.5C 251.378,221.099 249.878,221.766 248.5,222.5C 247.101,223.89 245.434,224.89 243.5,225.5C 245.966,218.933 246.133,212.266 244,205.5C 243.014,204.829 241.847,204.829 240.5,205.5C 241.659,203.75 243.326,202.75 245.5,202.5 Z"/></g>
<g><path style="opacity:1" fill="#1d4558" d="M 315.5,194.5 C 316.794,198.934 316.794,203.267 315.5,207.5C 315.649,206.448 315.483,205.448 315,204.5C 310.723,204.369 308.223,206.369 307.5,210.5C 307.929,213.029 308.596,215.362 309.5,217.5C 309.158,218.338 308.492,218.672 307.5,218.5C 307.46,215.012 306.793,211.679 305.5,208.5C 305.335,206.173 304.669,204.007 303.5,202C 304.126,201.25 304.626,200.416 305,199.5C 308.049,196.218 311.549,194.551 315.5,194.5 Z"/></g>
<g><path style="opacity:1" fill="#64c0cc" d="M 183.5,189.5 C 183.056,191.113 182.056,192.28 180.5,193C 185.982,197.029 191.982,199.862 198.5,201.5C 195.003,206.009 193.003,211.176 192.5,217C 192.862,218.434 193.528,219.601 194.5,220.5C 193.508,220.328 192.842,220.662 192.5,221.5C 191.677,218.023 191.177,214.356 191,210.5C 186.508,207.505 181.842,204.838 177,202.5C 176.055,202.905 175.388,203.572 175,204.5C 174.501,209.489 174.334,214.489 174.5,219.5C 171.677,209.466 173.511,200.132 180,191.5C 180.816,190.177 181.983,189.511 183.5,189.5 Z"/></g>
<g><path style="opacity:0.376" fill="#b2b7b9" d="M 281.5,203.5 C 280.167,208.5 280.167,213.5 281.5,218.5C 280.508,218.672 279.842,218.338 279.5,217.5C 278.897,212.381 279.564,207.715 281.5,203.5 Z"/></g>
<g><path style="opacity:1" fill="#0b1e29" d="M 315.5,207.5 C 314.717,211.605 312.717,214.939 309.5,217.5C 308.596,215.362 307.929,213.029 307.5,210.5C 308.223,206.369 310.723,204.369 315,204.5C 315.483,205.448 315.649,206.448 315.5,207.5 Z"/></g>
<g><path style="opacity:1" fill="#33778e" d="M 252.5,202.5 C 252.833,202.5 253.167,202.5 253.5,202.5C 256.395,203.399 259.062,204.733 261.5,206.5C 261.5,207.167 261.833,207.5 262.5,207.5C 265.672,209.252 268.672,211.252 271.5,213.5C 270.903,213.735 270.57,214.235 270.5,215C 271.256,220.146 271.923,225.312 272.5,230.5C 272.36,232.03 271.693,233.03 270.5,233.5C 267.339,232.087 264.339,230.42 261.5,228.5C 257.167,226.5 252.833,224.5 248.5,222.5C 249.878,221.766 251.378,221.099 253,220.5C 253.409,214.49 253.242,208.49 252.5,202.5 Z"/></g>
<g><path style="opacity:1" fill="#162f3f" d="M 243.5,225.5 C 241.97,227.346 239.97,228.346 237.5,228.5C 237.167,228.5 236.833,228.5 236.5,228.5C 236.205,221.412 236.538,214.412 237.5,207.5C 238.167,207.5 238.5,207.167 238.5,206.5C 238.842,205.662 239.508,205.328 240.5,205.5C 241.847,204.829 243.014,204.829 244,205.5C 246.133,212.266 245.966,218.933 243.5,225.5 Z"/></g>
<g><path style="opacity:0.376" fill="#c1e5e9" d="M 324.5,201.5 C 326.019,204.526 326.685,207.859 326.5,211.5C 326.497,214.025 326.163,216.359 325.5,218.5C 325.625,212.797 325.292,207.13 324.5,201.5 Z"/></g>
<g><path style="opacity:1" fill="#3dadb8" d="M 192.5,221.5 C 195.517,231.521 202.184,237.187 212.5,238.5C 214.265,239.461 216.265,239.795 218.5,239.5C 218.5,240.167 218.167,240.5 217.5,240.5C 201.699,246.258 188.533,242.592 178,229.5C 176.533,226.242 175.367,222.908 174.5,219.5C 174.334,214.489 174.501,209.489 175,204.5C 175.388,203.572 176.055,202.905 177,202.5C 181.842,204.838 186.508,207.505 191,210.5C 191.177,214.356 191.677,218.023 192.5,221.5 Z"/></g>
<g><path style="opacity:1" fill="#36869d" d="M 271.5,213.5 C 274.446,214.306 277.112,215.639 279.5,217.5C 279.842,218.338 280.508,218.672 281.5,218.5C 282.833,219.167 284.167,219.833 285.5,220.5C 287.158,227.27 288.491,234.103 289.5,241C 288.207,241.49 286.873,241.657 285.5,241.5C 284.041,241.567 282.708,241.234 281.5,240.5C 280.71,239.599 279.71,238.932 278.5,238.5C 277.833,238.167 277.167,237.833 276.5,237.5C 276.158,236.662 275.492,236.328 274.5,236.5C 273.167,235.5 271.833,234.5 270.5,233.5C 271.693,233.03 272.36,232.03 272.5,230.5C 271.923,225.312 271.256,220.146 270.5,215C 270.57,214.235 270.903,213.735 271.5,213.5 Z"/></g>
<g><path style="opacity:1" fill="#488b84" d="M 235.5,193.5 C 236.338,193.842 236.672,194.508 236.5,195.5C 236.183,199.702 236.517,203.702 237.5,207.5C 236.538,214.412 236.205,221.412 236.5,228.5C 232.147,230.676 227.814,232.843 223.5,235C 222.349,237.2 220.682,238.7 218.5,239.5C 216.265,239.795 214.265,239.461 212.5,238.5C 214.5,238.5 216.5,238.5 218.5,238.5C 219.123,231.745 218.456,225.412 216.5,219.5C 217.449,214.26 217.782,208.927 217.5,203.5C 218.166,207.021 218.833,210.687 219.5,214.5C 224.678,211.078 229.678,207.411 234.5,203.5C 235.487,200.232 235.82,196.898 235.5,193.5 Z"/></g>
<g><path style="opacity:1" fill="#111d26" d="M 216.5,219.5 C 218.456,225.412 219.123,231.745 218.5,238.5C 216.5,238.5 214.5,238.5 212.5,238.5C 202.184,237.187 195.517,231.521 192.5,221.5C 192.842,220.662 193.508,220.328 194.5,220.5C 199.007,222.113 203.673,222.779 208.5,222.5C 211.01,222.946 213.01,222.28 214.5,220.5C 214.842,219.662 215.508,219.328 216.5,219.5 Z"/></g>
<g><path style="opacity:0.973" fill="#72787e" d="M 214.5,220.5 C 213.01,222.28 211.01,222.946 208.5,222.5C 210.302,221.542 212.302,220.875 214.5,220.5 Z"/></g>
<g><path style="opacity:1" fill="#64c0ce" d="M 307.5,218.5 C 309.071,224.711 310.237,231.044 311,237.5C 311.333,236.833 311.667,236.167 312,235.5C 312.671,236.252 313.504,236.586 314.5,236.5C 306.777,242.858 298.11,244.858 288.5,242.5C 292.167,242.5 295.833,242.5 299.5,242.5C 298.751,236.176 298.085,229.843 297.5,223.5C 294.941,223.802 292.607,223.468 290.5,222.5C 296.645,222.879 302.312,221.546 307.5,218.5 Z"/></g>
<g><path style="opacity:1" fill="#4ba8bb" d="M 285.5,220.5 C 287.403,220.796 289.07,221.463 290.5,222.5C 292.607,223.468 294.941,223.802 297.5,223.5C 298.085,229.843 298.751,236.176 299.5,242.5C 295.833,242.5 292.167,242.5 288.5,242.5C 287.209,242.737 286.209,242.404 285.5,241.5C 286.873,241.657 288.207,241.49 289.5,241C 288.491,234.103 287.158,227.27 285.5,220.5 Z"/></g>
<g><path style="opacity:1" fill="#52928b" d="M 261.5,228.5 C 264.339,230.42 267.339,232.087 270.5,233.5C 271.833,234.5 273.167,235.5 274.5,236.5C 271.777,237.352 269.11,238.519 266.5,240C 261.509,243.632 256.842,247.465 252.5,251.5C 258.825,245.203 261.825,237.536 261.5,228.5 Z"/></g>
<g><path style="opacity:1" fill="#2a393b" d="M 276.5,237.5 C 277.167,237.833 277.833,238.167 278.5,238.5C 274.567,250.963 266.233,255.963 253.5,253.5C 259.763,248.352 266.096,243.186 272.5,238C 273.793,237.51 275.127,237.343 276.5,237.5 Z"/></g>
<g><path style="opacity:1" fill="#5dafa5" d="M 236.5,228.5 C 236.833,228.5 237.167,228.5 237.5,228.5C 236.422,237.27 239.088,244.604 245.5,250.5C 243.173,250.247 241.173,250.914 239.5,252.5C 239.238,250.868 240.238,249.701 242.5,249C 238.041,248.763 234.374,250.43 231.5,254C 232.308,254.308 232.975,254.808 233.5,255.5C 231.663,256.838 229.997,258.338 228.5,260C 228.743,260.902 229.077,261.735 229.5,262.5C 221.962,257.318 217.962,249.985 217.5,240.5C 218.167,240.5 218.5,240.167 218.5,239.5C 220.682,238.7 222.349,237.2 223.5,235C 227.814,232.843 232.147,230.676 236.5,228.5 Z"/></g>
<g><path style="opacity:1" fill="#30605a" d="M 274.5,236.5 C 275.492,236.328 276.158,236.662 276.5,237.5C 275.127,237.343 273.793,237.51 272.5,238C 266.096,243.186 259.763,248.352 253.5,253.5C 252.662,253.158 252.328,252.492 252.5,251.5C 256.842,247.465 261.509,243.632 266.5,240C 269.11,238.519 271.777,237.352 274.5,236.5 Z"/></g>
<g><path style="opacity:1" fill="#51918a" d="M 278.5,238.5 C 279.71,238.932 280.71,239.599 281.5,240.5C 277.002,261.948 263.669,271.448 241.5,269C 236.701,268.104 232.701,265.937 229.5,262.5C 229.077,261.735 228.743,260.902 228.5,260C 229.997,258.338 231.663,256.838 233.5,255.5C 232.975,254.808 232.308,254.308 231.5,254C 234.374,250.43 238.041,248.763 242.5,249C 240.238,249.701 239.238,250.868 239.5,252.5C 241.173,250.914 243.173,250.247 245.5,250.5C 247.663,252.432 249.997,252.765 252.5,251.5C 252.328,252.492 252.662,253.158 253.5,253.5C 266.233,255.963 274.567,250.963 278.5,238.5 Z"/></g>
<g><path style="opacity:0.709" fill="#8b9e9d" d="M 188.5,291.5 C 194.868,291.17 201.202,291.504 207.5,292.5C 201.872,293.495 196.206,293.829 190.5,293.5C 190.5,295.5 190.5,297.5 190.5,299.5C 207.833,300.167 207.833,300.833 190.5,301.5C 190.5,303.5 190.5,305.5 190.5,307.5C 196.206,307.171 201.872,307.505 207.5,308.5C 201.202,309.496 194.868,309.83 188.5,309.5C 188.5,303.5 188.5,297.5 188.5,291.5 Z"/></g>
<g><path style="opacity:0.712" fill="#849997" d="M 235.5,291.5 C 242.532,291.17 249.532,291.503 256.5,292.5C 253.572,293.484 250.572,293.817 247.5,293.5C 246.833,314.833 246.167,314.833 245.5,293.5C 241.671,294.069 238.337,293.402 235.5,291.5 Z"/></g>
<g><path style="opacity:0.744" fill="#8b9e9d" d="M 388.5,291.5 C 394.868,291.17 401.202,291.504 407.5,292.5C 401.872,293.495 396.206,293.829 390.5,293.5C 390.5,295.5 390.5,297.5 390.5,299.5C 407.833,300.167 407.833,300.833 390.5,301.5C 390.5,303.5 390.5,305.5 390.5,307.5C 396.206,307.171 401.872,307.505 407.5,308.5C 401.202,309.496 394.868,309.83 388.5,309.5C 388.5,303.5 388.5,297.5 388.5,291.5 Z"/></g>
<g><path style="opacity:0.171" fill="#d8dfde" d="M 231.5,291.5 C 231.821,297.026 231.488,302.36 230.5,307.5C 230.167,306.833 229.833,306.167 229.5,305.5C 230.167,300.833 230.833,296.167 231.5,291.5 Z"/></g>
<g><path style="opacity:0.941" fill="#698280" d="M 231.5,291.5 C 233.453,297.074 234.12,303.074 233.5,309.5C 232.209,309.737 231.209,309.404 230.5,308.5C 230.5,308.167 230.5,307.833 230.5,307.5C 231.488,302.36 231.821,297.026 231.5,291.5 Z"/></g>
<g><path style="opacity:0.792" fill="#8a9e9c" d="M 339.5,291.5 C 344.267,291.191 348.934,291.691 353.5,293C 359.255,299.137 358.588,304.47 351.5,309C 345.574,310.11 339.908,309.444 334.5,307C 330.601,299.854 332.268,294.688 339.5,291.5 Z M 340.5,293.5 C 347.566,291.87 352.566,294.203 355.5,300.5C 353.901,305.816 350.234,308.483 344.5,308.5C 337.41,307.927 334.244,304.26 335,297.5C 336.812,296.023 338.645,294.69 340.5,293.5 Z"/></g>
<g><path style="opacity:0.735" fill="#8ca09e" d="M 113.5,291.5 C 118.844,291.334 124.177,291.501 129.5,292C 136.991,296.136 137.991,301.469 132.5,308C 126.258,309.37 119.925,309.87 113.5,309.5C 113.5,303.5 113.5,297.5 113.5,291.5 Z M 115.5,293.5 C 119.514,293.334 123.514,293.501 127.5,294C 132.746,295.237 134.58,298.404 133,303.5C 131.786,305.049 130.286,306.215 128.5,307C 124.179,307.499 119.846,307.666 115.5,307.5C 115.5,302.833 115.5,298.167 115.5,293.5 Z"/></g>
<g><path style="opacity:0.576" fill="#9bacab" d="M 142.5,301.5 C 142.167,301.5 141.833,301.5 141.5,301.5C 141.665,298.482 141.498,295.482 141,292.5C 140.501,298.157 140.334,303.824 140.5,309.5C 139.51,303.69 139.177,297.69 139.5,291.5C 146.2,291.17 152.866,291.503 159.5,292.5C 153.872,293.495 148.206,293.829 142.5,293.5C 142.5,295.5 142.5,297.5 142.5,299.5C 159.833,300.167 159.833,300.833 142.5,301.5 Z"/></g>
<g><path style="opacity:0.851" fill="#829896" d="M 301.5,306.5 C 295.594,306.146 289.927,305.146 284.5,303.5C 287.016,299.134 290.016,295.134 293.5,291.5C 297.858,297.036 301.858,302.869 305.5,309C 303.385,309.536 302.052,308.703 301.5,306.5 Z M 292.5,294.5 C 295.178,297.332 297.512,300.499 299.5,304C 295.167,304.667 290.833,304.667 286.5,304C 289.147,301.199 291.147,298.032 292.5,294.5 Z"/></g>
<g><path style="opacity:0.542" fill="#849997" d="M 259.5,291.5 C 264.844,291.334 270.177,291.501 275.5,292C 280.861,295.985 280.528,299.651 274.5,303C 276.543,304.708 278.21,306.708 279.5,309C 279,309.167 278.5,309.333 278,309.5C 275.513,307.729 273.346,305.562 271.5,303C 268.183,302.502 264.85,302.335 261.5,302.5C 261.808,304.924 261.474,307.257 260.5,309.5C 259.504,303.537 259.171,297.537 259.5,291.5 Z M 261.5,293.5 C 265.846,293.334 270.179,293.501 274.5,294C 278.487,296.422 278.154,298.422 273.5,300C 269.514,300.499 265.514,300.666 261.5,300.5C 261.5,298.167 261.5,295.833 261.5,293.5 Z"/></g>
<g><path style="opacity:0.808" fill="#8c9f9e" d="M 229.5,305.5 C 229.833,306.167 230.167,306.833 230.5,307.5C 230.5,307.833 230.5,308.167 230.5,308.5C 224.631,304.817 219.131,300.483 214,295.5C 213.828,300.202 213.328,304.868 212.5,309.5C 211.504,303.537 211.171,297.537 211.5,291.5C 212.552,291.351 213.552,291.517 214.5,292C 219.345,296.679 224.345,301.179 229.5,305.5 Z"/></g>
<g><path style="opacity:0.69" fill="#8ea19f" d="M 170.5,291.5 C 175.361,291.063 180.028,291.563 184.5,293C 183.975,293.692 183.308,294.192 182.5,294.5C 177.795,293.136 173.128,293.303 168.5,295C 164.786,297.467 163.953,300.634 166,304.5C 171.602,308.821 177.602,309.488 184,306.5C 185.608,306.974 185.774,307.641 184.5,308.5C 179.22,309.618 173.887,309.784 168.5,309C 161.904,305.086 160.904,300.086 165.5,294C 167.315,293.243 168.981,292.41 170.5,291.5 Z"/></g>
<g><path style="opacity:0.737" fill="#8a9e9c" d="M 314.5,291.5 C 319.167,291.5 323.833,291.5 328.5,291.5C 328.719,292.675 328.386,293.675 327.5,294.5C 323.558,293.4 319.558,293.233 315.5,294C 307.519,298.387 307.519,302.721 315.5,307C 317.278,307.704 319.112,308.204 321,308.5C 324.166,307.578 327.333,307.078 330.5,307C 329.833,307.667 329.167,308.333 328.5,309C 323.5,309.667 318.5,309.667 313.5,309C 307.632,305.96 306.132,301.46 309,295.5C 310.812,294.023 312.645,292.69 314.5,291.5 Z"/></g>
<g><path style="opacity:0.151" fill="#c7d1d0" d="M 284.5,303.5 C 289.927,305.146 295.594,306.146 301.5,306.5C 295.794,306.171 290.128,306.505 284.5,307.5C 283.824,309.354 282.824,309.687 281.5,308.5C 282.696,306.855 283.696,305.189 284.5,303.5 Z"/></g>
<g><path style="opacity:0.776" fill="#889c9b" d="M 361.5,291.5 C 366.844,291.334 372.177,291.501 377.5,292C 384.181,294.528 386.014,299.028 383,305.5C 381.786,307.049 380.286,308.215 378.5,309C 372.843,309.499 367.176,309.666 361.5,309.5C 361.5,303.5 361.5,297.5 361.5,291.5 Z M 363.5,293.5 C 369.105,292.908 374.439,293.741 379.5,296C 383.876,300.896 382.876,304.563 376.5,307C 372.179,307.499 367.846,307.666 363.5,307.5C 363.5,302.833 363.5,298.167 363.5,293.5 Z"/></g>
<g><path style="opacity:0.18" fill="#d9dfdf" d="M 141.5,301.5 C 141.833,301.5 142.167,301.5 142.5,301.5C 142.5,303.5 142.5,305.5 142.5,307.5C 148.206,307.171 153.872,307.505 159.5,308.5C 159.376,309.107 159.043,309.44 158.5,309.5C 153.025,308.511 147.358,308.178 141.5,308.5C 141.5,306.167 141.5,303.833 141.5,301.5 Z"/></g>
<g><path style="opacity:0.67" fill="#5a7674" d="M 141.5,301.5 C 141.5,303.833 141.5,306.167 141.5,308.5C 147.358,308.178 153.025,308.511 158.5,309.5C 152.5,309.5 146.5,309.5 140.5,309.5C 140.334,303.824 140.501,298.157 141,292.5C 141.498,295.482 141.665,298.482 141.5,301.5 Z"/></g>
</svg>
